<svg id="visual" viewBox="0 0 675 900" width="675" height="900" xmlns="http://www.w3.org/2000/svg" xmlns:xlink="http://www.w3.org/1999/xlink" version="1.1"><rect x="0" y="0" width="675" height="900" fill="#01161e"></rect><defs><linearGradient id="grad1_0" x1="0%" y1="0%" x2="100%" y2="100%"><stop offset="30%" stop-color="#01161e" stop-opacity="1"></stop><stop offset="70%" stop-color="#01161e" stop-opacity="1"></stop></linearGradient></defs><defs><linearGradient id="grad2_0" x1="0%" y1="0%" x2="100%" y2="100%"><stop offset="30%" stop-color="#01161e" stop-opacity="1"></stop><stop offset="70%" stop-color="#01161e" stop-opacity="1"></stop></linearGradient></defs><g transform="translate(675, 0)"><path d="M0 421.9C-50.2 399.2 -100.5 376.5 -146.6 353.8C-192.7 331.1 -234.7 308.4 -277.9 277.9C-321.1 247.4 -365.6 209.1 -389.8 161.4C-414 113.8 -417.9 56.9 -421.9 0L0 0Z" fill="#FBAE3C"></path></g><g transform="translate(0, 900)"><path d="M0 -421.9C58.3 -414.5 116.6 -407.2 156.1 -376.9C195.7 -346.7 216.6 -293.7 257.4 -257.4C298.2 -221.1 359 -201.5 389.8 -161.4C420.5 -121.3 421.2 -60.7 421.9 0L0 0Z" fill="#FBAE3C"></path></g></svg>