<svg id="visual" viewBox="0 0 675 900" width="675" height="900" xmlns="http://www.w3.org/2000/svg" xmlns:xlink="http://www.w3.org/1999/xlink" version="1.1"><rect x="0" y="0" width="675" height="900" fill="#01161e"></rect><defs><linearGradient id="grad1_0" x1="0%" y1="0%" x2="100%" y2="100%"><stop offset="30%" stop-color="#01161e" stop-opacity="1"></stop><stop offset="70%" stop-color="#01161e" stop-opacity="1"></stop></linearGradient></defs><defs><linearGradient id="grad2_0" x1="0%" y1="0%" x2="100%" y2="100%"><stop offset="30%" stop-color="#01161e" stop-opacity="1"></stop><stop offset="70%" stop-color="#01161e" stop-opacity="1"></stop></linearGradient></defs><g transform="translate(675, 0)"><path d="M0 421.9C-49.4 404.5 -98.8 387.2 -153.5 370.5C-208.1 353.7 -267.9 337.6 -298.3 298.3C-328.8 259.1 -329.8 196.7 -345.5 143.1C-361.2 89.6 -391.6 44.8 -421.9 0L0 0Z" fill="#FBAE3C"></path></g><g transform="translate(0, 900)"><path d="M0 -421.9C45.9 -388.8 91.8 -355.8 138.5 -334.4C185.2 -313.1 232.7 -303.6 277.9 -277.9C323.1 -252.2 366.1 -210.4 389.8 -161.4C413.4 -112.4 417.6 -56.2 421.9 0L0 0Z" fill="#FBAE3C"></path></g></svg>