<svg id="visual" viewBox="0 0 675 900" width="675" height="900" xmlns="http://www.w3.org/2000/svg" xmlns:xlink="http://www.w3.org/1999/xlink" version="1.1"><rect x="0" y="0" width="675" height="900" fill="#01161e"></rect><defs><linearGradient id="grad1_0" x1="0%" y1="0%" x2="100%" y2="100%"><stop offset="30%" stop-color="#01161e" stop-opacity="1"></stop><stop offset="70%" stop-color="#01161e" stop-opacity="1"></stop></linearGradient></defs><defs><linearGradient id="grad2_0" x1="0%" y1="0%" x2="100%" y2="100%"><stop offset="30%" stop-color="#01161e" stop-opacity="1"></stop><stop offset="70%" stop-color="#01161e" stop-opacity="1"></stop></linearGradient></defs><g transform="translate(675, 0)"><path d="M0 421.9C-50.5 407.5 -101 393 -155.8 376C-210.5 359 -269.4 339.3 -298.3 298.3C-327.3 257.3 -326.2 194.9 -341.8 141.6C-357.4 88.3 -389.7 44.2 -421.9 0L0 0Z" fill="#FBAE3C"></path></g><g transform="translate(0, 900)"><path d="M0 -421.9C41.6 -386.1 83.1 -350.4 139.3 -336.3C195.4 -322.2 266.2 -329.8 298.3 -298.3C330.4 -266.8 324 -196.3 338.1 -140.1C352.3 -83.8 387.1 -41.9 421.9 0L0 0Z" fill="#FBAE3C"></path></g></svg>