<svg id="visual" viewBox="0 0 675 900" width="675" height="900" xmlns="http://www.w3.org/2000/svg" xmlns:xlink="http://www.w3.org/1999/xlink" version="1.1"><rect x="0" y="0" width="675" height="900" fill="#01161e"></rect><defs><linearGradient id="grad1_0" x1="0%" y1="0%" x2="100%" y2="100%"><stop offset="30%" stop-color="#01161e" stop-opacity="1"></stop><stop offset="70%" stop-color="#01161e" stop-opacity="1"></stop></linearGradient></defs><defs><linearGradient id="grad2_0" x1="0%" y1="0%" x2="100%" y2="100%"><stop offset="30%" stop-color="#01161e" stop-opacity="1"></stop><stop offset="70%" stop-color="#01161e" stop-opacity="1"></stop></linearGradient></defs><g transform="translate(675, 0)"><path d="M0 421.9C-51.5 398.8 -103 375.7 -144.3 348.3C-185.5 320.9 -216.4 289.4 -260.2 260.2C-304 231.1 -360.7 204.4 -389.8 161.4C-418.8 118.5 -420.4 59.2 -421.9 0L0 0Z" fill="#FBAE3C"></path></g><g transform="translate(0, 900)"><path d="M0 -421.9C46.9 -392.4 93.7 -362.8 142 -342.8C190.2 -322.7 239.9 -312 284.3 -284.3C328.6 -256.5 367.7 -211.7 389.8 -161.4C411.8 -111.2 416.8 -55.6 421.9 0L0 0Z" fill="#FBAE3C"></path></g></svg>