<?xml version="1.0" encoding="UTF-8"?>
<svg xmlns="http://www.w3.org/2000/svg" xmlns:xlink="http://www.w3.org/1999/xlink" viewBox="0 0 64 64" width="64px" height="64px">
<g id="surface191239174">
<path style=" stroke:none;fill-rule:nonzero;fill:rgb(90.196079%,80.784315%,62.7451%);fill-opacity:1;" d="M 52 15.5 L 12 15.5 C 8.398438 15.5 5.5 18.398438 5.5 22 L 5.5 52 C 5.5 55.601562 8.398438 58.5 12 58.5 L 52 58.5 C 55.601562 58.5 58.5 55.601562 58.5 52 L 58.5 22 C 58.5 18.398438 55.601562 15.5 52 15.5 Z M 54.699219 33.5 C 47.550781 37.101562 39.800781 38.949219 32 38.949219 C 24.199219 38.949219 16.449219 37.101562 9.300781 33.5 C 8.800781 33.25 8.5 32.75 8.5 32.148438 C 8.5 31.050781 9.699219 30.300781 10.699219 30.851562 C 24.101562 37.648438 39.898438 37.648438 53.300781 30.851562 C 54.300781 30.351562 55.5 31.050781 55.5 32.148438 C 55.5 32.699219 55.199219 33.25 54.699219 33.5 Z M 41 13.5 C 40.148438 13.5 39.5 12.851562 39.5 12 C 39.5 10.050781 37.949219 8.5 36 8.5 L 28 8.5 C 26.050781 8.5 24.5 10.050781 24.5 12 C 24.5 12.851562 23.851562 13.5 23 13.5 C 22.148438 13.5 21.5 12.851562 21.5 12 C 21.5 8.398438 24.398438 5.5 28 5.5 L 36 5.5 C 39.601562 5.5 42.5 8.398438 42.5 12 C 42.5 12.851562 41.851562 13.5 41 13.5 Z M 41 13.5 "/>
</g>
</svg>
